<svg version="1.1" id="Layer_1" xmlns="http://www.w3.org/2000/svg" xmlns:xlink="http://www.w3.org/1999/xlink" x="0px" y="0px"
	 width="100%" viewBox="0 0 272 176" enable-background="new 0 0 272 176" xml:space="preserve">
<path fill="#000000" opacity="1.000000" stroke="none" 
	d="
M187.469604,138.575897 
	C185.584335,148.327682 178.398514,154.942276 169.570389,157.596344 
	C156.391983,161.558258 143.918671,159.652023 130.819519,156.752731 
	C116.595352,153.604431 104.043106,148.190948 94.717979,137.194977 
	C79.095963,118.773857 72.346855,87.989883 92.024170,64.179604 
	C98.140762,56.778305 97.910080,56.172474 92.633644,48.174812 
	C90.721184,45.276043 90.137062,42.555912 94.684891,41.424706 
	C96.833374,40.890308 98.485298,39.476303 100.094543,37.970390 
	C102.522156,35.698658 105.030182,33.484375 108.344086,32.522449 
	C112.523239,31.309368 116.200905,29.591221 119.203194,26.043951 
	C122.072205,22.654150 124.483749,23.750879 125.737701,28.037029 
	C126.556862,30.836998 125.207352,34.104389 127.843475,36.523106 
	C130.122543,38.614208 131.171967,41.451500 131.569305,44.484386 
	C139.593109,43.139812 145.212158,36.510162 145.661453,28.029379 
	C145.756989,26.226152 145.398682,24.067484 147.626450,23.374563 
	C149.515244,22.787075 151.300644,23.674137 152.542343,25.150709 
	C159.251160,33.128578 168.417557,34.381886 177.988434,34.577263 
	C178.987366,34.597660 179.989990,34.619144 180.986115,34.559772 
	C183.999313,34.380180 187.202438,34.850498 188.127274,37.879288 
	C188.986908,40.694519 186.323257,42.696785 184.128250,44.114815 
	C179.636032,47.016903 175.805389,50.498196 177.779572,56.239525 
	C179.079422,60.019741 181.564743,63.556961 184.123428,66.713173 
	C201.849197,88.578514 201.770126,111.600571 188.988800,135.568344 
	C188.519165,136.449005 188.038513,137.323776 187.469604,138.575897 
M113.483192,130.495438 
	C114.116737,137.577011 117.670692,142.963730 123.269440,147.091202 
	C126.206932,149.256775 129.184158,151.393661 132.297668,153.290344 
	C140.414108,158.234756 149.513321,159.101486 158.367996,157.152802 
	C165.772049,155.523331 173.018906,153.651718 178.569321,146.424301 
	C184.778641,138.338898 189.462479,129.765396 192.752075,120.465408 
	C195.916550,111.519173 196.833557,101.995842 194.609039,92.527184 
	C192.458664,83.374008 188.204285,75.295830 182.339432,68.206436 
	C179.012604,69.531036 176.628540,74.849686 174.010437,70.760223 
	C171.518555,66.867912 177.566147,66.926987 179.304367,64.647636 
	C178.528366,62.227280 177.541748,60.227196 174.415329,61.226242 
	C170.485321,62.482079 169.121887,64.944550 171.375809,68.957664 
	C168.394501,68.693573 167.089066,71.788864 164.216599,70.564636 
	C164.421280,72.166046 164.360367,73.211571 164.703522,74.101227 
	C165.953339,77.341301 167.012604,80.729752 163.609772,83.105171 
	C160.383163,85.357552 156.924347,85.655807 153.589798,82.634926 
	C150.949783,80.243248 148.035156,80.560333 145.668945,83.214485 
	C144.157181,84.910210 142.556396,85.108414 140.371643,84.981888 
	C134.566162,84.645683 129.158646,82.124306 123.238792,82.352867 
	C114.863426,82.676231 108.819649,87.147476 108.128708,94.046661 
	C108.406815,94.169754 108.685043,94.379158 108.975807,94.398308 
	C109.292068,94.419151 109.861877,94.123749 109.908318,94.204285 
	C113.379684,100.224068 116.394691,95.475281 119.550156,93.835091 
	C119.975670,93.613907 120.532829,93.429817 120.983093,93.504707 
	C128.321121,94.725288 134.447021,98.127525 139.324997,103.901642 
	C136.688522,102.496452 133.773758,102.179398 131.076157,101.114532 
	C122.455597,97.711639 115.017845,100.328857 111.348534,108.390915 
	C107.988876,115.772591 110.181908,122.934639 113.483192,130.495438 
M159.510376,57.763557 
	C166.516602,61.158936 173.366501,58.364182 172.940567,51.856892 
	C172.655624,47.503429 171.407837,43.230137 173.561691,38.179829 
	C169.392868,39.436989 166.886780,38.571781 164.066452,36.649807 
	C159.162415,33.307861 150.177231,35.250271 145.658417,39.982998 
	C150.299896,44.087994 145.956253,49.939064 148.611450,54.923210 
	C152.173553,54.623867 155.319885,56.628784 159.510376,57.763557 
M146.763321,65.114311 
	C148.181107,64.705956 149.733795,64.524826 150.961334,63.796043 
	C151.601715,63.415848 151.925308,62.070007 151.920547,61.162785 
	C151.916245,60.338020 150.776596,59.439930 150.160980,59.815578 
	C147.221069,61.609516 143.905106,59.246315 140.751099,60.838757 
	C140.895920,64.355034 142.407776,66.046585 146.763321,65.114311 
M144.782059,43.760300 
	C140.372040,44.182564 141.230576,47.066463 142.132370,50.013554 
	C143.039352,47.993694 146.080566,47.233055 144.782059,43.760300 
M150.457458,32.535213 
	C153.030365,29.386139 152.953812,29.076679 149.031616,26.960922 
	C148.371475,28.932497 148.032242,30.819241 150.457458,32.535213 
z"/>
<path fill="#000000" opacity="1.000000" stroke="none" 
	d="
M178.675644,128.543045 
	C176.901825,132.142563 175.602661,135.536926 174.089371,138.821136 
	C170.688919,146.201080 164.653625,147.665695 157.734512,147.630371 
	C150.696304,147.594437 143.918640,146.297852 137.534241,142.936737 
	C129.536346,138.726166 121.107025,123.772011 122.001572,114.633629 
	C122.551796,109.012650 125.392548,106.743950 131.048279,107.408699 
	C140.325317,108.499084 144.692551,113.023041 145.338989,122.251930 
	C145.583908,125.748474 145.606934,129.224747 144.572845,132.643600 
	C143.473999,136.276505 145.360153,138.293594 148.686768,138.425461 
	C155.873001,138.710312 160.316971,134.146317 163.854553,128.670486 
	C167.770599,122.608902 167.828705,116.843819 164.446350,112.401527 
	C160.752899,107.550606 155.855850,106.446815 150.370956,109.241348 
	C149.482361,109.694092 148.648178,110.264244 147.735977,110.657532 
	C146.319946,111.268021 144.771896,111.677490 143.547607,110.413780 
	C142.309982,109.136299 142.900543,107.617371 143.477203,106.214127 
	C145.849930,100.440308 154.399841,96.552567 161.815491,98.306358 
	C168.001068,99.769249 173.775955,102.334412 176.887878,108.399689 
	C180.111389,114.682480 182.172928,121.206062 178.675644,128.543045 
z"/>
<path fill="#000000" opacity="1.000000" stroke="none" 
	d="
M159.964844,49.496750 
	C158.071655,48.361469 155.701889,49.218311 154.146225,47.301662 
	C156.073441,44.725212 158.609253,45.171650 160.727615,46.255367 
	C162.225098,47.021454 163.335251,48.848087 159.964844,49.496750 
z"/>
</svg>